<?xml version="1.0" encoding="utf-8"?>
<!-- Generator: Adobe Illustrator 16.0.0, SVG Export Plug-In . SVG Version: 6.00 Build 0)  -->
<!DOCTYPE svg PUBLIC "-//W3C//DTD SVG 1.1//EN" "http://www.w3.org/Graphics/SVG/1.1/DTD/svg11.dtd">
<svg version="1.1" id="Layer_1" xmlns="http://www.w3.org/2000/svg" xmlns:xlink="http://www.w3.org/1999/xlink" x="0px" y="0px"
	 width="255.167px" height="54px" viewBox="0 0 255.167 54" enable-background="new 0 0 255.167 54" xml:space="preserve">
<title>Page 1</title>
<desc>Created with Sketch.</desc>
<g>
	<g>
		<g>
			<g>
				<g>
					<g>
						<polygon fill="#F2EA33" points="31.984,34.479 22.011,40.413 11.884,34.742 11.731,23.137 21.706,17.203 31.832,22.874 						
							"/>
					</g>
					<g>
						<path fill="#231F20" d="M22.019,41.121l-10.745-6.018l-0.162-12.312l10.583-6.296l10.744,6.016l0.162,12.312L22.019,41.121
							L22.019,41.121z M12.493,34.379l9.508,5.324l9.365-5.571l-0.143-10.896l-9.509-5.324l-9.365,5.572L12.493,34.379
							L12.493,34.379z"/>
					</g>
				</g>
				<g>
					<g>
						<g>
							<polygon fill="#231F20" points="21.529,28.497 12.216,23.749 12.494,23.202 21.808,27.951 21.529,28.497 							"/>
						</g>
					</g>
					<g>
						<g>
							<polygon fill="#231F20" points="21.812,28.496 21.525,27.954 31.454,22.71 31.741,23.253 21.812,28.496 							"/>
						</g>
					</g>
					<g>
						<g>
							<polygon fill="#231F20" points="21.589,40.329 21.463,28.226 22.077,28.221 22.203,40.322 21.589,40.329 							"/>
						</g>
					</g>
				</g>
			</g>
			<g>
				<g>
					<g>
						<polygon fill="#F2EA33" points="21.551,40.616 11.577,46.551 1.451,40.878 1.299,29.275 11.273,23.34 21.399,29.012 						"/>
					</g>
					<g>
						<path fill="#231F20" d="M11.586,47.259L0.842,41.241L0.681,28.929l10.583-6.297l10.745,6.017l0.162,12.314L11.586,47.259
							L11.586,47.259z M2.059,40.517l9.509,5.327l9.366-5.574L20.79,29.374l-9.507-5.326l-9.365,5.573L2.059,40.517L2.059,40.517z"
							/>
					</g>
				</g>
				<g>
					<g>
						<g>
							<polygon fill="#231F20" points="11.096,34.635 1.783,29.885 2.062,29.341 11.374,34.09 11.096,34.635 							"/>
						</g>
					</g>
					<g>
						<g>
							<polygon fill="#231F20" points="11.378,34.633 11.092,34.09 21.022,28.848 21.308,29.393 11.378,34.633 							"/>
						</g>
					</g>
					<g>
						<g>
							<polygon fill="#231F20" points="11.156,46.465 11.031,34.366 11.645,34.357 11.77,46.46 11.156,46.465 							"/>
						</g>
					</g>
				</g>
			</g>
		</g>
		<g>
			<g>
				<g>
					<polygon fill="#F2EA33" points="42.148,40.099 32.173,46.031 22.048,40.362 21.895,28.759 31.871,22.823 41.996,28.494 					
						"/>
				</g>
				<g>
					<path fill="#231F20" d="M32.182,46.741l-10.744-6.018l-0.162-12.312l10.583-6.298l10.745,6.018l0.163,12.313L32.182,46.741
						L32.182,46.741z M22.656,40.001l9.509,5.322l9.365-5.571l-0.144-10.896l-9.507-5.325l-9.366,5.575L22.656,40.001L22.656,40.001
						z"/>
				</g>
			</g>
			<g>
				<g>
					<g>
						<polygon fill="#231F20" points="31.693,34.117 22.379,29.369 22.658,28.823 31.972,33.571 31.693,34.117 						"/>
					</g>
				</g>
				<g>
					<g>
						<polygon fill="#231F20" points="31.975,34.114 31.688,33.574 41.619,28.33 41.904,28.874 31.975,34.114 						"/>
					</g>
				</g>
				<g>
					<g>
						<polygon fill="#231F20" points="31.753,45.949 31.627,33.849 32.241,33.84 32.367,45.942 31.753,45.949 						"/>
					</g>
				</g>
			</g>
		</g>
		<g>
			<g>
				<g>
					<polygon fill="#F2EA33" points="31.715,46.236 21.741,52.172 11.614,46.498 11.461,34.895 21.437,28.961 31.562,34.63 					"/>
				</g>
				<g>
					<path fill="#231F20" d="M21.749,52.879l-10.744-6.018l-0.162-12.313l10.583-6.297l10.745,6.018l0.161,12.314L21.749,52.879
						L21.749,52.879z M12.222,46.135l9.509,5.327l9.366-5.574l-0.143-10.896l-9.508-5.322l-9.365,5.572L12.222,46.135L12.222,46.135
						z"/>
				</g>
			</g>
			<g>
				<g>
					<g>
						<polygon fill="#231F20" points="21.259,40.255 11.946,35.507 12.225,34.958 21.539,39.707 21.259,40.255 						"/>
					</g>
				</g>
				<g>
					<g>
						<polygon fill="#231F20" points="21.542,40.253 21.254,39.71 31.185,34.468 31.472,35.011 21.542,40.253 						"/>
					</g>
				</g>
				<g>
					<g>
						<polygon fill="#231F20" points="21.319,52.085 21.193,39.984 21.808,39.978 21.933,52.078 21.319,52.085 						"/>
					</g>
				</g>
			</g>
		</g>
	</g>
	<g>
		<g>
			<g>
				<g>
					<g>
						<polygon fill="#F2EA33" points="31.984,19.749 22.011,25.684 11.884,20.014 11.731,8.408 21.706,2.474 31.832,8.145 						"/>
					</g>
					<g>
						<path fill="#231F20" d="M22.019,26.392l-10.745-6.016L11.113,8.062l10.583-6.297L32.44,7.781l0.162,12.314L22.019,26.392
							L22.019,26.392z M12.493,19.65l9.508,5.325l9.365-5.572L31.224,8.507l-9.509-5.325L12.35,8.755L12.493,19.65L12.493,19.65z"/>
					</g>
				</g>
				<g>
					<g>
						<g>
							<polygon fill="#231F20" points="21.529,13.768 12.216,9.02 12.494,8.472 21.808,13.223 21.529,13.768 							"/>
						</g>
					</g>
					<g>
						<g>
							<polygon fill="#231F20" points="21.812,13.767 21.525,13.223 31.454,7.981 31.741,8.524 21.812,13.767 							"/>
						</g>
					</g>
					<g>
						<g>
							<polygon fill="#231F20" points="21.589,25.598 21.463,13.497 22.077,13.492 22.203,25.593 21.589,25.598 							"/>
						</g>
					</g>
				</g>
				<g>
					<polygon fill="#231F20" points="25.366,9.165 21.663,11.368 17.904,9.262 17.848,2.202 21.551,0 25.309,2.104 					"/>
				</g>
			</g>
			<g>
				<g>
					<g>
						<polygon fill="#F2EA33" points="21.551,25.886 11.577,31.822 1.451,26.149 1.299,14.545 11.273,8.61 21.399,14.28 						"/>
					</g>
					<g>
						<path fill="#231F20" d="M11.586,32.53L0.842,26.512L0.681,14.198l10.583-6.295l10.745,6.017l0.162,12.313L11.586,32.53
							L11.586,32.53z M2.059,25.789l9.509,5.324l9.366-5.572L20.79,14.644l-9.507-5.324l-9.365,5.572L2.059,25.789L2.059,25.789z"/>
					</g>
				</g>
				<g>
					<g>
						<g>
							<polygon fill="#231F20" points="11.096,19.906 1.783,15.156 2.062,14.609 11.374,19.359 11.096,19.906 							"/>
						</g>
					</g>
					<g>
						<g>
							<polygon fill="#231F20" points="11.378,19.904 11.092,19.361 21.022,14.118 21.308,14.661 11.378,19.904 							"/>
						</g>
					</g>
					<g>
						<g>
							<polygon fill="#231F20" points="11.156,31.735 11.031,19.635 11.645,19.629 11.77,31.731 11.156,31.735 							"/>
						</g>
					</g>
				</g>
				<g>
					<polygon fill="#231F20" points="14.932,15.302 11.23,17.504 7.471,15.4 7.416,8.339 11.117,6.136 14.875,8.241 					"/>
				</g>
			</g>
		</g>
		<g>
			<g>
				<g>
					<polygon fill="#F2EA33" points="42.148,25.37 32.173,31.305 22.048,25.634 21.895,14.028 31.871,8.093 41.996,13.765 					"/>
				</g>
				<g>
					<path fill="#231F20" d="M32.182,32.013l-10.744-6.017l-0.162-12.313l10.583-6.296l10.745,6.016l0.163,12.314L32.182,32.013
						L32.182,32.013z M22.656,25.27l9.509,5.325l9.365-5.571l-0.144-10.897l-9.507-5.324l-9.366,5.572L22.656,25.27L22.656,25.27z"
						/>
				</g>
			</g>
			<g>
				<g>
					<g>
						<polygon fill="#231F20" points="31.693,19.388 22.379,14.639 22.658,14.092 31.972,18.842 31.693,19.388 						"/>
					</g>
				</g>
				<g>
					<g>
						<polygon fill="#231F20" points="31.975,19.386 31.688,18.844 41.619,13.601 41.904,14.144 31.975,19.386 						"/>
					</g>
				</g>
				<g>
					<g>
						<polygon fill="#231F20" points="31.753,31.22 31.627,19.118 32.241,19.113 32.367,31.214 31.753,31.22 						"/>
					</g>
				</g>
			</g>
			<g>
				<polygon fill="#231F20" points="35.529,14.784 31.826,16.988 28.068,14.883 28.012,7.822 31.714,5.62 35.472,7.724 				"/>
			</g>
		</g>
		<g>
			<g>
				<g>
					<polygon fill="#F2EA33" points="31.715,31.505 21.741,37.44 11.614,31.77 11.461,20.166 21.437,14.23 31.562,19.901 					"/>
				</g>
				<g>
					<path fill="#231F20" d="M21.749,38.15l-10.744-6.018l-0.162-12.313l10.583-6.298l10.745,6.018l0.161,12.312L21.749,38.15
						L21.749,38.15z M12.222,31.406l9.509,5.326l9.366-5.571l-0.143-10.897l-9.508-5.326l-9.365,5.573L12.222,31.406L12.222,31.406z
						"/>
				</g>
			</g>
			<g>
				<g>
					<g>
						<polygon fill="#231F20" points="21.259,25.525 11.946,20.775 12.225,20.23 21.539,24.979 21.259,25.525 						"/>
					</g>
				</g>
				<g>
					<g>
						<polygon fill="#231F20" points="21.542,25.524 21.254,24.98 31.185,19.739 31.472,20.282 21.542,25.524 						"/>
					</g>
				</g>
				<g>
					<g>
						<polygon fill="#231F20" points="21.319,37.358 21.193,25.256 21.808,25.249 21.933,37.35 21.319,37.358 						"/>
					</g>
				</g>
			</g>
			<g>
				<polygon fill="#231F20" points="25.095,20.921 21.393,23.125 17.634,21.02 17.579,13.959 21.281,11.756 25.039,13.861 				"/>
			</g>
		</g>
	</g>
</g>
<g>
	<g>
		<g>
			<path fill="#231F20" d="M75.349,29.621c0.813,0.692,1.37,1.449,1.668,2.271c0.299,0.82,0.348,1.703,0.147,2.652
				c-0.326,1.533-1.221,2.947-2.683,4.242c-1.795,1.602-4.168,2.468-7.118,2.602c-1.632,0.08-3.908,0.12-6.831,0.12h-9.907
				l0.22-0.94l0.866-3.884l1.685-7.643l1.69-8.327l1.346-6.525h10.729c2.682,0,4.517,0.043,5.506,0.13
				c0.989,0.087,1.981,0.297,2.979,0.631c1.058,0.36,2.006,0.887,2.845,1.581c0.84,0.693,1.446,1.454,1.818,2.281
				c0.578,1.294,0.698,2.742,0.357,4.343c-0.306,1.441-0.937,2.741-1.891,3.903C77.821,28.219,76.679,29.072,75.349,29.621z
				 M73.616,30.141c-0.599,0.12-1.146,0.18-1.639,0.18c-1.055,0-1.868-0.174-2.441-0.521c-0.574-0.346-0.8-0.801-0.681-1.36
				c0.065-0.308,0.205-0.462,0.418-0.462c0.16,0,0.366,0.067,0.618,0.202c0.822,0.467,1.772,0.699,2.854,0.699
				c1.961,0,3.607-0.773,4.937-2.32c0.848-0.974,1.405-2.089,1.672-3.344c0.405-1.908,0.012-3.543-1.18-4.903
				c-0.845-0.987-1.95-1.702-3.317-2.142c-1.368-0.44-3.152-0.661-5.354-0.661H68.4l-2.672,12.008l-2.574,12.67l1.798,0.021
				c1.988,0,3.559-0.109,4.713-0.329c1.155-0.22,2.155-0.599,3.003-1.133c1.759-1.122,2.82-2.535,3.184-4.242
				c0.184-0.869,0.09-1.665-0.283-2.393C75.197,31.383,74.546,30.728,73.616,30.141z"/>
			<path fill="#020202" d="M60.532,41.771H50.294l0.295-1.264l2.549-11.524l3.079-15.059h10.943c2.679,0,4.539,0.044,5.529,0.131
				c1.004,0.088,2.027,0.305,3.039,0.643c1.083,0.369,2.068,0.917,2.93,1.627c0.868,0.717,1.504,1.517,1.89,2.378
				c0.6,1.34,0.726,2.856,0.375,4.505c-0.314,1.477-0.968,2.827-1.944,4.016c-0.886,1.079-1.945,1.908-3.151,2.471
				c0.68,0.646,1.163,1.354,1.436,2.104c0.315,0.864,0.368,1.805,0.158,2.798c-0.337,1.585-1.268,3.058-2.766,4.384
				c-1.833,1.636-4.283,2.534-7.281,2.669C65.741,41.729,63.438,41.771,60.532,41.771z M50.958,41.243h9.575
				c2.897,0,5.191-0.038,6.818-0.118c2.875-0.129,5.215-0.982,6.956-2.535c1.413-1.251,2.288-2.629,2.601-4.102
				c0.189-0.894,0.144-1.736-0.137-2.508c-0.282-0.773-0.818-1.5-1.592-2.159l-0.328-0.28l0.399-0.163
				c1.283-0.528,2.401-1.364,3.324-2.487c0.922-1.123,1.539-2.398,1.835-3.791c0.327-1.538,0.213-2.945-0.34-4.181
				c-0.352-0.786-0.939-1.522-1.745-2.188c-0.812-0.67-1.742-1.186-2.762-1.534c-0.972-0.325-1.954-0.533-2.917-0.618
				c-0.975-0.085-2.82-0.129-5.483-0.129H56.647l-1.303,6.315l-1.689,8.326L50.958,41.243z M64.953,40.471l-2.119-0.023l2.636-12.98
				l2.719-12.22h1.312c2.219,0,4.047,0.226,5.435,0.672c1.407,0.453,2.563,1.2,3.437,2.221c1.242,1.418,1.659,3.145,1.237,5.13
				c-0.275,1.292-0.857,2.456-1.73,3.46c-1.375,1.6-3.104,2.413-5.135,2.413c-1.122,0-2.125-0.247-2.984-0.736
				c-0.257-0.135-0.408-0.166-0.487-0.166c-0.026,0-0.107,0-0.161,0.253c-0.096,0.449,0.083,0.794,0.56,1.081
				c0.529,0.318,1.304,0.48,2.305,0.48c0.474,0,1.009-0.057,1.588-0.173l0.103-0.021l0.089,0.058
				c0.965,0.608,1.654,1.306,2.047,2.072c0.399,0.779,0.502,1.644,0.306,2.567c-0.377,1.771-1.487,3.254-3.299,4.409
				c-0.873,0.55-1.914,0.942-3.095,1.167C68.55,40.356,66.947,40.471,64.953,40.471z M63.476,39.928l1.479,0.017
				c1.959,0,3.528-0.11,4.661-0.328c1.117-0.211,2.097-0.578,2.912-1.094c1.688-1.076,2.72-2.447,3.066-4.074
				c0.173-0.813,0.088-1.54-0.259-2.216c-0.338-0.662-0.934-1.271-1.772-1.813c-0.573,0.108-1.106,0.165-1.586,0.165
				c-1.099,0-1.966-0.188-2.577-0.56c-0.844-0.509-0.902-1.172-0.803-1.641c0.125-0.582,0.477-0.669,0.676-0.669
				c0.205,0,0.447,0.076,0.741,0.23c0.785,0.445,1.701,0.671,2.73,0.671c1.872,0,3.465-0.751,4.737-2.23
				c0.815-0.937,1.357-2.021,1.614-3.226c0.391-1.839,0.024-3.368-1.12-4.675c-0.811-0.948-1.887-1.642-3.2-2.065
				c-1.335-0.43-3.109-0.647-5.273-0.647h-0.89l-2.626,11.802L63.476,39.928z"/>
		</g>
		<g>
			<path fill="#231F20" d="M97.634,36.984c1.094,0.877,2.318,1.627,3.671,2.25c1.353,0.621,2.844,1.104,4.475,1.453
				c0.396,0.078,0.56,0.281,0.492,0.601c-0.093,0.439-0.447,0.661-1.06,0.661c-1.399,0-3.233-0.615-5.504-1.843
				c-1.887-1.026-3.96-2.615-6.223-4.762l-0.174,0.819l-0.703,3.404l-0.413,1.939H80.006l0.192-0.9l1.427-6.524l1.719-7.806
				l2.53-12.089h8.04c3.599,0,6.298,0.1,8.096,0.3c1.798,0.201,3.285,0.574,4.462,1.121c1.919,0.881,3.278,2.329,4.077,4.343
				c0.736,1.868,0.886,3.83,0.449,5.883c-0.465,2.19-1.537,4.252-3.213,6.185C105.084,35.131,101.701,36.785,97.634,36.984z
				 M95.999,35.744l0.955,0.021c2.744,0,5.226-0.767,7.444-2.303c1.404-0.962,2.578-2.161,3.524-3.603
				c0.879-1.321,1.467-2.668,1.758-4.042c0.497-2.335,0.181-4.423-0.945-6.265c-0.857-1.427-2.095-2.435-3.715-3.022
				c-1.621-0.587-4.012-0.901-7.175-0.941l-3.03,13.41l-0.77,3.622l-0.18,0.94C94.514,34.345,95.225,35.072,95.999,35.744z"/>
			<path fill="#020202" d="M105.212,42.211c-1.436,0-3.33-0.629-5.629-1.872c-1.805-0.982-3.801-2.49-5.937-4.483l-1.237,5.916
				H79.681l0.259-1.219l3.147-14.331l2.573-12.297h8.254c3.593,0,6.327,0.102,8.125,0.302c1.819,0.203,3.347,0.588,4.545,1.144
				c1.972,0.905,3.389,2.415,4.209,4.485c0.753,1.909,0.908,3.939,0.462,6.035c-0.472,2.222-1.574,4.343-3.272,6.302
				c-2.58,2.973-5.82,4.654-9.638,5.007c0.934,0.685,1.964,1.287,3.07,1.796c1.328,0.608,2.816,1.093,4.421,1.435
				c0.286,0.06,0.491,0.178,0.608,0.357c0.103,0.154,0.13,0.343,0.085,0.556C106.446,41.738,106.148,42.211,105.212,42.211z
				 M93.326,34.829l0.341,0.325c2.232,2.119,4.308,3.708,6.167,4.723c2.221,1.197,4.031,1.809,5.378,1.809
				c0.626,0,0.758-0.243,0.803-0.452c0.015-0.07,0.012-0.125-0.01-0.159c-0.036-0.055-0.136-0.102-0.276-0.129
				c-1.646-0.351-3.169-0.845-4.533-1.475c-1.365-0.625-2.619-1.395-3.726-2.279l-0.542-0.436l0.694-0.034
				c3.973-0.194,7.326-1.834,9.964-4.874c1.641-1.891,2.702-3.933,3.154-6.067c0.425-1.992,0.278-3.921-0.436-5.731
				c-0.769-1.94-2.095-3.353-3.941-4.201c-1.146-0.533-2.62-0.902-4.381-1.099c-1.779-0.198-4.493-0.298-8.066-0.298h-7.826
				l-2.486,11.88l-3.271,14.912h11.651L93.326,34.829z M96.954,36.027l-1.056-0.021l-0.072-0.063
				c-0.78-0.676-1.508-1.422-2.164-2.212l-0.08-0.096l0.204-1.062l0.771-3.628l3.078-13.621l0.213,0.002
				c3.177,0.041,5.62,0.362,7.261,0.956c1.671,0.606,2.968,1.661,3.851,3.135c1.157,1.89,1.487,4.062,0.979,6.455
				c-0.297,1.4-0.902,2.791-1.797,4.135c-0.96,1.463-2.17,2.698-3.594,3.673C102.295,35.236,99.74,36.027,96.954,36.027z
				 M96.1,35.483l0.86,0.018c2.671,0,5.126-0.759,7.29-2.255c1.368-0.938,2.53-2.125,3.453-3.531
				c0.859-1.288,1.438-2.619,1.721-3.953c0.479-2.256,0.172-4.298-0.914-6.072c-0.821-1.37-2.025-2.349-3.58-2.912
				c-1.55-0.562-3.862-0.872-6.875-0.921l-2.983,13.202l-0.925,4.431C94.743,34.197,95.399,34.867,96.1,35.483z"/>
		</g>
		<g>
			<path fill="#231F20" d="M130.62,13.368c2.108,0,4.048,0.447,5.819,1.341c2.603,1.321,4.371,3.355,5.309,6.104
				c0.744,2.202,0.844,4.597,0.293,7.184c-0.441,2.082-1.331,4.098-2.666,6.046c-1.991,2.907-4.604,5.117-7.833,6.624
				c-2.369,1.106-4.729,1.66-7.078,1.66c-2.481,0-4.696-0.625-6.645-1.88c-2.597-1.652-4.206-3.975-4.824-6.964
				c-0.385-1.828-0.371-3.717,0.043-5.663c0.519-2.444,1.622-4.772,3.306-6.987c2.073-2.722,4.687-4.756,7.843-6.104
				C126.284,13.835,128.429,13.381,130.62,13.368z M128.754,14.709l-2.888,13.028l-2.202,10.829l-0.5,2.442
				c0.438,0.078,0.861,0.121,1.274,0.121c2.95,0,5.758-0.816,8.426-2.445c2.439-1.493,4.382-3.414,5.828-5.764
				c1.017-1.64,1.712-3.341,2.087-5.101c0.493-2.324,0.392-4.485-0.304-6.486c-0.852-2.456-2.402-4.264-4.651-5.424
				c-1.681-0.88-3.555-1.321-5.622-1.321C129.721,14.588,129.238,14.628,128.754,14.709z"/>
			<path fill="#020202" d="M124.464,42.592c-2.521,0-4.805-0.646-6.788-1.923c-2.645-1.687-4.307-4.086-4.938-7.133
				c-0.391-1.855-0.376-3.796,0.043-5.771c0.525-2.47,1.654-4.854,3.354-7.091c2.091-2.746,4.766-4.828,7.948-6.188
				c2.121-0.904,4.321-1.369,6.535-1.382c2.144,0,4.141,0.461,5.94,1.369c2.652,1.347,4.482,3.452,5.438,6.255
				c0.759,2.238,0.858,4.703,0.302,7.325c-0.446,2.104-1.357,4.17-2.705,6.14c-2.011,2.933-4.683,5.19-7.939,6.712
				C129.26,42.025,126.841,42.592,124.464,42.592z M130.62,13.631c-2.144,0.012-4.273,0.463-6.33,1.339
				c-3.098,1.323-5.7,3.35-7.736,6.022c-1.653,2.173-2.749,4.488-3.258,6.88c-0.404,1.901-0.419,3.771-0.043,5.557
				c0.601,2.901,2.185,5.189,4.707,6.796c1.898,1.221,4.086,1.84,6.504,1.84c2.299,0,4.644-0.549,6.967-1.636
				c3.172-1.48,5.771-3.681,7.729-6.537c1.31-1.91,2.192-3.913,2.624-5.949c0.538-2.528,0.441-4.898-0.285-7.046
				c-0.909-2.667-2.651-4.671-5.178-5.954C134.596,14.073,132.678,13.631,130.62,13.631z M124.438,41.392
				c-0.426,0-0.871-0.04-1.321-0.125l-0.266-0.049l2.756-13.533l2.929-13.206l0.175-0.029c0.496-0.083,0.997-0.125,1.491-0.125
				c2.1,0,4.034,0.456,5.744,1.352c2.299,1.187,3.906,3.061,4.778,5.571c0.708,2.038,0.813,4.267,0.311,6.625
				c-0.378,1.783-1.091,3.528-2.119,5.188c-1.461,2.37-3.451,4.342-5.915,5.851C130.305,40.557,127.423,41.392,124.438,41.392z
				 M123.477,40.791c0.329,0.051,0.652,0.074,0.962,0.074c2.888,0,5.676-0.809,8.289-2.404c2.392-1.467,4.324-3.374,5.741-5.678
				c0.995-1.609,1.687-3.297,2.053-5.019c0.48-2.264,0.382-4.399-0.294-6.345c-0.826-2.378-2.348-4.153-4.523-5.276
				c-1.637-0.858-3.487-1.292-5.502-1.292c-0.407,0-0.82,0.03-1.23,0.089l-2.849,12.854L123.477,40.791z"/>
		</g>
		<g>
			<path fill="#231F20" d="M143.159,36.865c0.239,0,0.481,0.18,0.726,0.539c0.768,1.095,1.805,1.972,3.112,2.631
				c1.308,0.663,2.669,0.993,4.083,0.993c1.562,0,2.442-0.474,2.645-1.422c0.128-0.601-0.002-1.276-0.389-2.031
				c-0.385-0.756-1.377-2.245-2.972-4.475c-2.005-2.814-3.294-4.901-3.873-6.262c-0.765-1.803-0.975-3.517-0.628-5.145
				c0.522-2.454,2.042-4.462,4.562-6.023c2.475-1.535,5.286-2.302,8.434-2.302c2.203,0,4.13,0.447,5.781,1.341
				c0.619,0.347,1.133,0.748,1.536,1.201c0.403,0.454,0.572,0.834,0.507,1.14c-0.03,0.147-0.129,0.285-0.296,0.411
				c-0.168,0.127-0.324,0.189-0.471,0.189c-0.229,0-0.517-0.207-0.868-0.62c-0.577-0.68-1.403-1.244-2.481-1.691
				c-1.081-0.447-2.16-0.669-3.243-0.669c-0.666,0-1.24,0.144-1.722,0.43c-0.48,0.287-0.77,0.658-0.866,1.111
				c-0.117,0.547,0,1.216,0.354,2.003c0.352,0.788,1.01,1.835,1.973,3.142c3.037,4.176,4.841,6.99,5.413,8.445
				c0.594,1.534,0.74,3.016,0.437,4.443c-0.259,1.213-0.829,2.362-1.712,3.442c-0.884,1.08-1.98,1.969-3.288,2.66
				c-2.495,1.322-5.339,1.981-8.527,1.981c-2.937,0-5.356-0.758-7.262-2.281c-1.334-1.065-1.938-1.902-1.811-2.5
				c0.038-0.173,0.142-0.332,0.311-0.471C142.795,36.936,142.971,36.865,143.159,36.865z"/>
			<path fill="#020202" d="M151.385,42.592c-2.983,0-5.481-0.786-7.425-2.339c-1.432-1.146-2.055-2.05-1.904-2.764
				c0.05-0.232,0.186-0.439,0.399-0.617c0.508-0.418,1.132-0.376,1.648,0.385c0.736,1.052,1.75,1.907,3.012,2.546
				c1.266,0.638,2.599,0.963,3.965,0.963c1.433,0,2.213-0.398,2.387-1.215c0.114-0.534-0.009-1.162-0.365-1.856
				c-0.377-0.735-1.367-2.229-2.951-4.441c-2.006-2.816-3.318-4.939-3.9-6.312c-0.784-1.843-1-3.627-0.645-5.302
				c0.535-2.516,2.11-4.6,4.683-6.193c2.505-1.553,5.39-2.341,8.571-2.341c2.238,0,4.225,0.462,5.907,1.373
				c0.646,0.362,1.187,0.784,1.606,1.257c0.467,0.524,0.653,0.973,0.568,1.37c-0.044,0.21-0.178,0.401-0.395,0.565
				c-0.541,0.411-1.015,0.333-1.7-0.469c-0.545-0.645-1.347-1.189-2.381-1.619c-1.044-0.431-2.101-0.65-3.142-0.65
				c-0.614,0-1.148,0.133-1.586,0.394c-0.42,0.25-0.665,0.558-0.744,0.94c-0.104,0.488,0.008,1.107,0.335,1.841
				c0.343,0.764,0.997,1.805,1.946,3.093c3.078,4.235,4.859,7.015,5.444,8.505c0.613,1.577,0.763,3.122,0.449,4.593
				c-0.267,1.253-0.86,2.448-1.767,3.556c-0.902,1.103-2.035,2.021-3.368,2.726C157.513,41.915,154.603,42.592,151.385,42.592z
				 M143.159,37.128c-0.126,0-0.246,0.051-0.369,0.152c-0.122,0.099-0.194,0.204-0.219,0.32c-0.059,0.277,0.086,0.937,1.717,2.24
				c1.848,1.477,4.235,2.225,7.097,2.225c3.131,0,5.959-0.657,8.403-1.952c1.271-0.672,2.349-1.545,3.208-2.595
				c0.852-1.042,1.41-2.163,1.658-3.33c0.292-1.369,0.149-2.816-0.425-4.293c-0.561-1.427-2.37-4.248-5.38-8.385
				c-0.985-1.336-1.638-2.38-2.001-3.19c-0.373-0.837-0.499-1.564-0.37-2.165c0.111-0.525,0.445-0.957,0.989-1.282
				c0.521-0.311,1.146-0.467,1.856-0.467c1.112,0,2.234,0.232,3.343,0.69c1.112,0.461,1.982,1.054,2.582,1.764
				c0.416,0.49,0.616,0.528,0.668,0.528c0.088,0,0.192-0.046,0.312-0.138c0.113-0.086,0.181-0.172,0.198-0.254
				c0.046-0.217-0.108-0.531-0.446-0.911c-0.382-0.43-0.876-0.815-1.468-1.147c-1.603-0.867-3.504-1.307-5.653-1.307
				c-3.082,0-5.873,0.761-8.295,2.262c-2.444,1.515-3.94,3.485-4.444,5.855c-0.333,1.568-0.126,3.245,0.614,4.987
				c0.568,1.335,1.861,3.428,3.844,6.212c1.621,2.263,2.601,3.738,2.992,4.507c0.413,0.805,0.552,1.549,0.411,2.206
				c-0.229,1.082-1.206,1.631-2.901,1.631c-1.449,0-2.863-0.344-4.201-1.021c-1.341-0.676-2.421-1.591-3.211-2.715
				C143.481,37.28,143.302,37.128,143.159,37.128z"/>
		</g>
		<g>
			<path fill="#231F20" d="M190.506,15.53l-1.433,6.264l-1.323,5.943l-2.868,13.771h-12.208l3.511-15.95l1.094-5.425l0.918-4.603
				l-2.655,0.059l-3.8,0.081l-0.565,0.02c-0.64,0-0.907-0.239-0.807-0.721c0.092-0.426,0.328-0.667,0.714-0.72
				c0.113-0.028,0.442-0.047,0.994-0.061h24.556c0.853,0.013,1.351,0.054,1.497,0.12c0.243,0.107,0.329,0.333,0.255,0.68
				c-0.097,0.454-0.485,0.682-1.164,0.682l-1.729-0.061l-4.586-0.08H190.506z"/>
			<path fill="#020202" d="M185.096,41.771h-12.75l3.582-16.271l1.946-9.701l-6.688,0.152h-0.001c-0.46,0-0.765-0.107-0.944-0.328
				c-0.147-0.183-0.191-0.421-0.129-0.71c0.145-0.679,0.588-0.878,0.935-0.926c0.064-0.017,0.267-0.044,1.023-0.063h24.562
				c1.176,0.019,1.473,0.083,1.606,0.144c0.207,0.091,0.538,0.341,0.404,0.975c-0.088,0.407-0.404,0.889-1.423,0.889l-1.739-0.06
				l-4.767-0.079l-1.385,6.059l-1.323,5.942L185.096,41.771z M173.001,41.243h11.668l2.823-13.559l1.324-5.948l1.479-6.47h0.61
				l4.591,0.08l1.732,0.061c0.799,0,0.872-0.343,0.898-0.472c0.067-0.311-0.043-0.359-0.103-0.385
				c-0.034-0.014-0.244-0.08-1.395-0.098h-24.553c-0.714,0.017-0.891,0.043-0.933,0.053c-0.21,0.03-0.431,0.111-0.517,0.52
				c-0.027,0.125-0.02,0.216,0.022,0.268c0.068,0.085,0.261,0.133,0.525,0.133l0.556-0.02l6.788-0.147l-2.076,10.35L173.001,41.243z
				"/>
		</g>
		<g>
			<path fill="#231F20" d="M211.323,22.955c-0.158,0.613-0.329,1.36-0.517,2.242l-0.256,1.2l-2.795,13.811l6.8-0.069l4.814-0.051
				c0.788,0,1.13,0.234,1.028,0.71c-0.083,0.396-0.331,0.619-0.742,0.67c-0.097,0.015-0.653,0.027-1.67,0.04H195.25l0.242-1.042
				l1.44-6.683l1.602-7.167l2.483-12.428h21.216c0.946,0,1.483,0.02,1.607,0.059c0.29,0.08,0.396,0.303,0.317,0.671
				c-0.098,0.46-0.44,0.691-1.027,0.691h-0.14l-10.001-0.12l-1.399,6.204l2.178,0.02l7.029-0.119l1.546-0.021
				c0.56,0,0.92,0.048,1.08,0.142c0.161,0.094,0.211,0.285,0.149,0.568c-0.112,0.528-0.607,0.791-1.488,0.791l-1.571-0.048
				L211.323,22.955z"/>
			<path fill="#020202" d="M217.988,41.771H194.92l0.315-1.362l1.44-6.681l1.603-7.169l2.522-12.635h21.433
				c1.46,0,1.612,0.048,1.688,0.071c0.191,0.054,0.648,0.26,0.494,0.978c-0.086,0.41-0.379,0.899-1.284,0.899h-0.14l-9.792-0.118
				l-1.278,5.678l1.85,0.018l8.569-0.14c0.819,0,1.088,0.101,1.217,0.178c0.185,0.11,0.381,0.346,0.275,0.85
				c-0.143,0.663-0.729,0.999-1.747,0.999l-1.579-0.047l-8.979-0.07c-0.142,0.566-0.297,1.249-0.462,2.031l-0.256,1.201
				l-2.731,13.488l11.289-0.115c0.578,0,0.959,0.122,1.158,0.369c0.1,0.12,0.201,0.334,0.133,0.659
				c-0.109,0.507-0.444,0.81-0.968,0.877c-0.076,0.011-0.339,0.023-1.699,0.042H217.988z M195.581,41.243h22.403
				c1.307-0.015,1.584-0.029,1.636-0.035c0.306-0.038,0.462-0.178,0.522-0.465c0.031-0.148-0.011-0.199-0.025-0.218
				c-0.043-0.053-0.201-0.176-0.747-0.176l-11.937,0.125l3.116-15.332c0.188-0.884,0.361-1.642,0.518-2.253l0.052-0.2l9.396,0.074
				l1.578,0.048c1.1,0,1.191-0.438,1.222-0.583c0.016-0.073,0.045-0.245-0.026-0.286c-0.041-0.025-0.232-0.105-0.945-0.105
				l-1.543,0.02l-7.028,0.12l-2.51-0.023l1.517-6.73l10.352,0.122c0.593,0,0.723-0.257,0.77-0.481
				c0.066-0.31-0.042-0.339-0.128-0.363c-0.05-0.013-0.282-0.05-1.539-0.05h-21.001l-2.439,12.217l-1.604,7.169L195.581,41.243z"/>
		</g>
		<g>
			<path fill="#231F20" d="M240.297,36.984c1.096,0.877,2.319,1.627,3.671,2.25c1.354,0.621,2.847,1.104,4.477,1.453
				c0.395,0.078,0.561,0.281,0.491,0.601c-0.094,0.439-0.447,0.661-1.059,0.661c-1.399,0-3.234-0.615-5.505-1.843
				c-1.888-1.026-3.962-2.615-6.223-4.762l-0.176,0.819l-0.702,3.404l-0.413,1.939H222.67l0.191-0.9l1.426-6.524l1.721-7.806
				l2.528-12.089h8.041c3.6,0,6.299,0.1,8.096,0.3c1.799,0.201,3.285,0.574,4.461,1.121c1.92,0.881,3.279,2.329,4.077,4.343
				c0.736,1.868,0.888,3.83,0.451,5.883c-0.467,2.19-1.538,4.252-3.215,6.185C247.747,35.131,244.364,36.785,240.297,36.984z
				 M238.661,35.744l0.955,0.021c2.745,0,5.227-0.767,7.446-2.303c1.402-0.962,2.575-2.161,3.523-3.603
				c0.88-1.321,1.467-2.668,1.758-4.042c0.496-2.335,0.181-4.423-0.948-6.265c-0.854-1.427-2.093-2.435-3.712-3.022
				c-1.622-0.587-4.014-0.901-7.176-0.941l-3.029,13.41l-0.771,3.622l-0.18,0.94C237.178,34.345,237.889,35.072,238.661,35.744z"/>
			<path fill="#020202" d="M247.877,42.211c-1.438,0-3.331-0.629-5.63-1.872c-1.807-0.984-3.802-2.49-5.938-4.483l-1.238,5.916
				h-12.726l0.26-1.219l3.146-14.331l2.574-12.297h8.253c3.593,0,6.326,0.102,8.125,0.302c1.819,0.203,3.346,0.588,4.544,1.144
				c1.973,0.905,3.39,2.414,4.21,4.485c0.752,1.909,0.908,3.939,0.463,6.035c-0.474,2.223-1.575,4.343-3.273,6.302
				c-2.579,2.973-5.818,4.654-9.637,5.007c0.933,0.685,1.964,1.287,3.069,1.796c1.331,0.608,2.817,1.093,4.421,1.435
				c0.285,0.06,0.491,0.178,0.608,0.355c0.103,0.156,0.131,0.345,0.086,0.558C249.109,41.738,248.812,42.211,247.877,42.211z
				 M235.99,34.829l0.341,0.325c2.231,2.119,4.305,3.708,6.166,4.723c2.221,1.197,4.03,1.809,5.38,1.809
				c0.624,0,0.758-0.243,0.802-0.452c0.014-0.07,0.011-0.125-0.011-0.159c-0.036-0.055-0.137-0.102-0.275-0.129
				c-1.645-0.351-3.171-0.845-4.534-1.475c-1.364-0.625-2.619-1.395-3.727-2.279l-0.543-0.436l0.694-0.034
				c3.975-0.194,7.327-1.834,9.966-4.874c1.64-1.891,2.701-3.931,3.155-6.067c0.423-1.992,0.275-3.921-0.438-5.731
				c-0.77-1.94-2.096-3.353-3.942-4.201c-1.146-0.533-2.619-0.902-4.38-1.099c-1.78-0.198-4.494-0.298-8.067-0.298h-7.826
				l-2.487,11.88l-3.27,14.912h11.65L235.99,34.829z M239.616,36.027l-1.056-0.021l-0.071-0.063
				c-0.778-0.676-1.508-1.42-2.165-2.212l-0.079-0.096l0.204-1.062l0.771-3.628l3.079-13.621l0.212,0.002
				c3.178,0.041,5.62,0.362,7.262,0.956c1.67,0.605,2.965,1.66,3.851,3.135c1.157,1.89,1.487,4.062,0.979,6.455
				c-0.297,1.4-0.901,2.792-1.799,4.135c-0.959,1.463-2.168,2.698-3.592,3.673C244.958,35.236,242.403,36.027,239.616,36.027z
				 M238.763,35.483l0.86,0.018c2.671,0,5.126-0.759,7.29-2.255c1.367-0.936,2.528-2.125,3.453-3.531
				c0.857-1.288,1.437-2.618,1.721-3.953c0.479-2.256,0.171-4.298-0.914-6.072c-0.821-1.371-2.026-2.349-3.58-2.912
				c-1.549-0.562-3.86-0.872-6.875-0.921l-2.983,13.202l-0.925,4.431C237.407,34.199,238.063,34.869,238.763,35.483z"/>
		</g>
	</g>
	<g>
		<g>
			<path fill="#F2EA33" d="M74.822,29.094c0.813,0.693,1.369,1.45,1.668,2.27c0.299,0.822,0.349,1.705,0.147,2.652
				c-0.326,1.536-1.221,2.951-2.683,4.242c-1.795,1.602-4.167,2.471-7.119,2.604c-1.631,0.08-3.908,0.12-6.83,0.12h-9.907l0.22-0.94
				l0.866-3.883l1.684-7.646l1.69-8.326l1.347-6.525h10.728c2.682,0,4.518,0.043,5.507,0.13c0.989,0.087,1.981,0.297,2.978,0.631
				c1.058,0.36,2.006,0.887,2.846,1.581c0.84,0.694,1.446,1.455,1.818,2.282c0.578,1.293,0.697,2.741,0.357,4.343
				c-0.307,1.441-0.937,2.741-1.89,3.904C77.294,27.692,76.152,28.546,74.822,29.094z M73.09,29.614c-0.6,0.12-1.146,0.18-1.64,0.18
				c-1.054,0-1.867-0.173-2.44-0.521c-0.575-0.346-0.801-0.801-0.682-1.361c0.065-0.307,0.205-0.46,0.418-0.46
				c0.16,0,0.366,0.065,0.618,0.198c0.821,0.47,1.772,0.702,2.854,0.702c1.961,0,3.606-0.774,4.936-2.321
				c0.848-0.974,1.405-2.088,1.671-3.343c0.406-1.908,0.013-3.542-1.18-4.903c-0.844-0.988-1.95-1.701-3.317-2.141
				c-1.368-0.44-3.152-0.661-5.354-0.661h-1.102l-2.672,12.008l-2.572,12.668l1.797,0.021c1.987,0,3.558-0.109,4.713-0.331
				c1.155-0.22,2.156-0.596,3.003-1.129c1.759-1.122,2.82-2.535,3.184-4.242c0.185-0.868,0.09-1.665-0.283-2.395
				C74.67,30.856,74.02,30.199,73.09,29.614z"/>
			<path fill="#020202" d="M60.006,41.243H49.767l0.296-1.263l2.55-11.523l3.079-15.059h10.942c2.679,0,4.54,0.044,5.53,0.131
				c1.004,0.089,2.026,0.305,3.039,0.643c1.083,0.369,2.068,0.917,2.93,1.628c0.868,0.717,1.503,1.517,1.89,2.377
				c0.599,1.34,0.726,2.856,0.375,4.505c-0.313,1.476-0.968,2.826-1.944,4.015c-0.886,1.079-1.944,1.91-3.151,2.473
				c0.681,0.646,1.163,1.352,1.437,2.102c0.315,0.864,0.368,1.807,0.157,2.798c-0.337,1.585-1.268,3.06-2.766,4.385
				c-1.833,1.635-4.282,2.533-7.281,2.67C65.214,41.203,62.912,41.243,60.006,41.243z M50.431,40.72h9.575
				c2.896,0,5.191-0.042,6.818-0.12c2.875-0.132,5.215-0.985,6.956-2.536c1.414-1.251,2.288-2.63,2.601-4.103
				c0.19-0.893,0.144-1.737-0.137-2.506c-0.282-0.773-0.818-1.501-1.592-2.161l-0.328-0.279l0.399-0.165
				c1.284-0.528,2.401-1.364,3.323-2.484c0.922-1.124,1.541-2.399,1.836-3.792c0.327-1.539,0.213-2.945-0.34-4.181
				c-0.353-0.786-0.939-1.521-1.745-2.188c-0.812-0.67-1.742-1.186-2.763-1.534c-0.972-0.325-1.954-0.533-2.917-0.619
				c-0.974-0.085-2.818-0.128-5.483-0.128H56.12l-1.303,6.315l-1.689,8.325L50.431,40.72z M64.426,39.944l-2.119-0.023l2.637-12.981
				l2.72-12.22h1.312c2.218,0,4.046,0.227,5.435,0.672c1.407,0.454,2.563,1.201,3.436,2.222c1.242,1.418,1.659,3.145,1.238,5.129
				c-0.274,1.292-0.857,2.458-1.73,3.46c-1.375,1.6-3.104,2.413-5.135,2.413c-1.122,0-2.126-0.248-2.984-0.736
				c-0.258-0.135-0.408-0.165-0.488-0.165c-0.026,0-0.106,0-0.16,0.252c-0.096,0.449,0.082,0.794,0.56,1.081
				c0.528,0.321,1.304,0.483,2.305,0.483c0.476,0,1.009-0.06,1.588-0.175l0.104-0.021l0.089,0.058
				c0.964,0.606,1.653,1.304,2.046,2.07c0.398,0.782,0.501,1.644,0.305,2.567c-0.376,1.772-1.487,3.256-3.3,4.411
				c-0.872,0.55-1.913,0.94-3.094,1.167C68.022,39.83,66.42,39.944,64.426,39.944z M62.95,39.401l1.479,0.015
				c1.958,0,3.528-0.11,4.661-0.323c1.116-0.214,2.096-0.583,2.911-1.097c1.688-1.075,2.72-2.446,3.066-4.073
				c0.173-0.813,0.088-1.541-0.259-2.219c-0.338-0.657-0.933-1.268-1.771-1.813c-0.573,0.11-1.106,0.165-1.586,0.165
				c-1.098,0-1.965-0.188-2.577-0.558c-0.843-0.509-0.902-1.173-0.803-1.642c0.124-0.582,0.477-0.668,0.676-0.668
				c0.205,0,0.447,0.076,0.741,0.23c0.785,0.447,1.702,0.67,2.731,0.67c1.871,0,3.464-0.75,4.736-2.229
				c0.815-0.937,1.358-2.022,1.614-3.226c0.391-1.839,0.024-3.369-1.12-4.675c-0.811-0.948-1.887-1.642-3.2-2.065
				c-1.335-0.429-3.109-0.647-5.273-0.647h-0.89l-2.626,11.802L62.95,39.401z"/>
		</g>
		<g>
			<path fill="#F2EA33" d="M97.107,36.458c1.095,0.877,2.319,1.627,3.672,2.25c1.352,0.619,2.844,1.105,4.475,1.454
				c0.396,0.078,0.56,0.278,0.491,0.598c-0.094,0.441-0.447,0.661-1.06,0.661c-1.399,0-3.233-0.612-5.504-1.84
				c-1.887-1.029-3.961-2.614-6.222-4.765l-0.174,0.821l-0.703,3.402l-0.413,1.941H79.479l0.191-0.902l1.427-6.524l1.719-7.803
				l2.53-12.09h8.04c3.599,0,6.298,0.1,8.096,0.3c1.797,0.2,3.285,0.573,4.462,1.121c1.918,0.881,3.277,2.329,4.076,4.343
				c0.736,1.869,0.886,3.83,0.45,5.883c-0.465,2.19-1.537,4.252-3.214,6.184C104.558,34.603,101.174,36.257,97.107,36.458z
				 M95.472,35.218l0.956,0.019c2.745,0,5.226-0.767,7.445-2.301c1.403-0.961,2.577-2.161,3.523-3.603
				c0.88-1.319,1.467-2.669,1.759-4.043c0.496-2.334,0.18-4.423-0.947-6.264c-0.855-1.427-2.095-2.435-3.715-3.022
				c-1.621-0.587-4.011-0.9-7.174-0.94l-3.03,13.41l-0.771,3.622l-0.18,0.94C93.987,33.816,94.698,34.546,95.472,35.218z"/>
			<path fill="#020202" d="M104.686,41.686c-1.436,0-3.33-0.632-5.629-1.872c-1.805-0.985-3.8-2.491-5.937-4.483l-1.238,5.913
				H79.154l0.259-1.219l3.147-14.33l2.572-12.296h8.254c3.593,0,6.327,0.102,8.125,0.303c1.818,0.202,3.347,0.587,4.544,1.144
				c1.972,0.905,3.39,2.415,4.21,4.484c0.752,1.909,0.907,3.939,0.462,6.036c-0.472,2.224-1.573,4.344-3.272,6.304
				c-2.581,2.969-5.821,4.65-9.638,5.003c0.934,0.688,1.964,1.287,3.07,1.796c1.328,0.611,2.816,1.095,4.42,1.436
				c0.287,0.059,0.492,0.177,0.609,0.356c0.102,0.156,0.131,0.343,0.084,0.558C105.919,41.212,105.623,41.686,104.686,41.686z
				 M92.799,34.303l0.341,0.323c2.232,2.121,4.307,3.71,6.167,4.723c2.221,1.202,4.031,1.811,5.378,1.811
				c0.626,0,0.758-0.241,0.803-0.452c0.016-0.072,0.012-0.125-0.011-0.161c-0.035-0.053-0.136-0.099-0.275-0.126
				c-1.646-0.352-3.17-0.848-4.534-1.476c-1.366-0.625-2.62-1.395-3.726-2.281l-0.542-0.436l0.693-0.031
				c3.973-0.197,7.326-1.837,9.964-4.875c1.641-1.89,2.702-3.933,3.155-6.065c0.424-1.994,0.278-3.923-0.438-5.734
				c-0.768-1.939-2.093-3.353-3.94-4.2c-1.147-0.533-2.62-0.902-4.381-1.098c-1.779-0.199-4.493-0.299-8.067-0.299h-7.827
				l-2.485,11.879L79.805,40.72h11.651L92.799,34.303z M96.427,35.501l-1.056-0.023l-0.072-0.062
				c-0.781-0.68-1.508-1.422-2.164-2.212l-0.08-0.095l0.203-1.063l0.771-3.628l3.078-13.621l0.213,0.003
				c3.176,0.04,5.619,0.362,7.261,0.956c1.672,0.606,2.967,1.661,3.851,3.134c1.157,1.891,1.486,4.062,0.979,6.455
				c-0.298,1.4-0.903,2.791-1.798,4.135c-0.96,1.46-2.17,2.7-3.594,3.674C101.768,34.711,99.213,35.501,96.427,35.501z
				 M95.573,34.956l0.859,0.019c2.672,0,5.126-0.761,7.289-2.254c1.368-0.938,2.53-2.126,3.454-3.531
				c0.858-1.29,1.438-2.621,1.721-3.955c0.48-2.255,0.172-4.298-0.914-6.071c-0.821-1.37-2.024-2.349-3.58-2.912
				c-1.549-0.562-3.862-0.871-6.875-0.922l-2.983,13.202l-0.925,4.432C94.216,33.671,94.873,34.341,95.573,34.956z"/>
		</g>
		<g>
			<path fill="#F2EA33" d="M130.093,12.841c2.108,0,4.049,0.447,5.819,1.341c2.602,1.321,4.371,3.356,5.309,6.105
				c0.744,2.2,0.844,4.596,0.295,7.185c-0.443,2.081-1.333,4.096-2.667,6.044c-1.992,2.909-4.604,5.115-7.832,6.624
				c-2.371,1.107-4.73,1.661-7.079,1.661c-2.481,0-4.696-0.628-6.645-1.881c-2.597-1.654-4.206-3.977-4.824-6.966
				c-0.386-1.828-0.372-3.716,0.042-5.662c0.519-2.443,1.622-4.771,3.306-6.986c2.073-2.722,4.686-4.757,7.842-6.105
				C125.757,13.309,127.902,12.854,130.093,12.841z M128.228,14.182l-2.89,13.029l-2.201,10.829l-0.499,2.44
				c0.437,0.081,0.861,0.121,1.274,0.121c2.949,0,5.757-0.813,8.426-2.442c2.439-1.494,4.382-3.415,5.827-5.765
				c1.017-1.642,1.713-3.341,2.087-5.102c0.493-2.323,0.392-4.485-0.303-6.486c-0.853-2.455-2.403-4.263-4.651-5.424
				c-1.682-0.88-3.557-1.32-5.623-1.32C129.193,14.062,128.711,14.102,128.228,14.182z"/>
			<path fill="#020202" d="M123.938,42.065c-2.521,0-4.805-0.646-6.787-1.923c-2.646-1.686-4.309-4.086-4.94-7.133
				c-0.391-1.857-0.376-3.799,0.044-5.772c0.526-2.469,1.654-4.855,3.354-7.091c2.091-2.746,4.766-4.828,7.948-6.188
				c2.121-0.903,4.321-1.368,6.535-1.381c2.143,0,4.141,0.46,5.939,1.369c2.652,1.346,4.483,3.451,5.438,6.254
				c0.759,2.238,0.86,4.703,0.302,7.324c-0.446,2.105-1.356,4.17-2.706,6.14c-2.011,2.935-4.681,5.193-7.938,6.712
				C128.732,41.497,126.315,42.065,123.938,42.065z M130.093,13.104c-2.143,0.013-4.273,0.464-6.329,1.339
				c-3.098,1.324-5.7,3.349-7.736,6.022c-1.653,2.174-2.75,4.489-3.259,6.882c-0.404,1.901-0.418,3.769-0.042,5.555
				c0.601,2.902,2.185,5.188,4.708,6.797c1.897,1.221,4.084,1.84,6.503,1.84c2.3,0,4.643-0.551,6.967-1.637
				c3.172-1.481,5.771-3.679,7.728-6.535c1.31-1.91,2.192-3.913,2.624-5.95c0.537-2.529,0.442-4.9-0.286-7.046
				c-0.908-2.668-2.65-4.672-5.177-5.955C134.069,13.546,132.15,13.104,130.093,13.104z M123.912,40.865
				c-0.426,0-0.871-0.042-1.321-0.125l-0.265-0.05l2.755-13.533l2.928-13.207l0.175-0.029c0.497-0.083,0.998-0.124,1.491-0.124
				c2.1,0,4.034,0.455,5.745,1.352c2.299,1.186,3.906,3.061,4.779,5.571c0.707,2.038,0.812,4.268,0.311,6.627
				c-0.38,1.781-1.093,3.525-2.121,5.185c-1.46,2.375-3.451,4.342-5.914,5.853C129.777,40.031,126.896,40.865,123.912,40.865z
				 M122.951,40.268c0.328,0.046,0.65,0.069,0.961,0.069c2.887,0,5.676-0.807,8.287-2.402c2.393-1.466,4.325-3.376,5.743-5.679
				c0.995-1.608,1.685-3.297,2.053-5.018c0.48-2.265,0.381-4.399-0.295-6.344c-0.826-2.379-2.349-4.155-4.523-5.278
				c-1.637-0.856-3.487-1.292-5.502-1.292c-0.407,0-0.82,0.03-1.229,0.09l-2.85,12.853L122.951,40.268z"/>
		</g>
		<g>
			<path fill="#F2EA33" d="M142.633,36.34c0.239,0,0.48,0.177,0.726,0.538c0.768,1.095,1.804,1.972,3.111,2.633
				c1.308,0.659,2.669,0.989,4.083,0.989c1.562,0,2.443-0.474,2.645-1.42c0.128-0.601-0.002-1.278-0.389-2.032
				c-0.386-0.755-1.377-2.246-2.972-4.474c-2.004-2.814-3.295-4.902-3.872-6.263c-0.766-1.802-0.974-3.517-0.629-5.145
				c0.522-2.455,2.043-4.463,4.563-6.024c2.474-1.535,5.285-2.302,8.435-2.302c2.202,0,4.128,0.447,5.779,1.341
				c0.619,0.347,1.133,0.748,1.536,1.2c0.403,0.454,0.574,0.834,0.509,1.141c-0.033,0.146-0.131,0.285-0.297,0.41
				c-0.168,0.127-0.324,0.19-0.473,0.19c-0.228,0-0.516-0.207-0.868-0.62c-0.576-0.681-1.402-1.245-2.481-1.692
				c-1.08-0.446-2.158-0.67-3.24-0.67c-0.668,0-1.241,0.144-1.724,0.431c-0.48,0.286-0.77,0.658-0.866,1.111
				c-0.117,0.546,0.001,1.214,0.354,2.002c0.351,0.788,1.009,1.834,1.972,3.142c3.038,4.176,4.841,6.993,5.414,8.446
				c0.594,1.532,0.739,3.016,0.436,4.444c-0.259,1.213-0.828,2.359-1.712,3.439c-0.884,1.082-1.98,1.972-3.288,2.662
				c-2.495,1.323-5.339,1.982-8.527,1.982c-2.936,0-5.356-0.761-7.261-2.282c-1.335-1.067-1.937-1.899-1.81-2.502
				c0.036-0.173,0.14-0.329,0.311-0.469C142.268,36.407,142.445,36.34,142.633,36.34z"/>
			<path fill="#020202" d="M150.857,42.065c-2.983,0-5.48-0.788-7.425-2.341c-1.433-1.144-2.055-2.048-1.903-2.762
				c0.049-0.232,0.185-0.439,0.398-0.617c0.508-0.418,1.133-0.376,1.648,0.385c0.736,1.05,1.752,1.908,3.013,2.544
				c1.265,0.638,2.599,0.964,3.964,0.964c1.433,0,2.214-0.397,2.388-1.213c0.113-0.539-0.01-1.16-0.365-1.857
				c-0.376-0.735-1.369-2.229-2.952-4.441c-2.005-2.816-3.318-4.94-3.9-6.312c-0.783-1.844-1-3.627-0.643-5.303
				c0.533-2.516,2.108-4.6,4.681-6.193c2.505-1.552,5.39-2.34,8.573-2.34c2.235,0,4.223,0.461,5.905,1.372
				c0.646,0.362,1.188,0.784,1.606,1.257c0.468,0.525,0.654,0.973,0.568,1.371c-0.044,0.21-0.177,0.401-0.395,0.565
				c-0.541,0.412-1.015,0.333-1.699-0.468c-0.546-0.646-1.348-1.19-2.382-1.62c-1.043-0.431-2.1-0.649-3.14-0.649
				c-0.616,0-1.149,0.132-1.588,0.393c-0.42,0.25-0.664,0.557-0.744,0.939c-0.104,0.489,0.009,1.108,0.335,1.841
				c0.344,0.765,0.997,1.805,1.946,3.094c3.078,4.233,4.859,7.014,5.445,8.504c0.611,1.576,0.762,3.123,0.448,4.596
				c-0.265,1.249-0.859,2.444-1.765,3.552c-0.903,1.105-2.036,2.022-3.369,2.729C156.985,41.388,154.075,42.065,150.857,42.065z
				 M142.633,36.602c-0.127,0-0.247,0.049-0.37,0.15c-0.121,0.102-0.192,0.207-0.218,0.32c-0.06,0.277,0.085,0.938,1.716,2.242
				c1.85,1.475,4.235,2.225,7.097,2.225c3.131,0,5.959-0.657,8.404-1.952c1.27-0.672,2.348-1.544,3.207-2.595
				c0.852-1.041,1.409-2.163,1.658-3.33c0.292-1.371,0.149-2.813-0.424-4.293c-0.562-1.427-2.371-4.249-5.38-8.386
				c-0.984-1.335-1.64-2.379-2.002-3.19c-0.374-0.836-0.498-1.564-0.371-2.165c0.112-0.525,0.446-0.957,0.991-1.281
				c0.521-0.311,1.146-0.468,1.857-0.468c1.109,0,2.233,0.232,3.34,0.69c1.114,0.461,1.983,1.056,2.583,1.765
				c0.418,0.489,0.616,0.527,0.667,0.527c0.089,0,0.193-0.046,0.312-0.137c0.113-0.086,0.181-0.172,0.199-0.255
				c0.046-0.216-0.108-0.531-0.447-0.911c-0.381-0.429-0.876-0.814-1.469-1.146c-1.601-0.866-3.503-1.307-5.65-1.307
				c-3.084,0-5.875,0.761-8.297,2.262c-2.444,1.515-3.94,3.484-4.444,5.855c-0.333,1.567-0.127,3.245,0.615,4.987
				c0.566,1.335,1.86,3.428,3.845,6.213c1.619,2.264,2.599,3.738,2.99,4.505c0.413,0.808,0.552,1.549,0.412,2.208
				c-0.23,1.08-1.206,1.631-2.902,1.631c-1.449,0-2.861-0.344-4.201-1.021c-1.34-0.676-2.42-1.591-3.209-2.715
				C142.954,36.752,142.774,36.602,142.633,36.602z"/>
		</g>
		<g>
			<path fill="#F2EA33" d="M189.979,15.002l-1.432,6.265l-1.323,5.944l-2.868,13.77h-12.209l3.511-15.951l1.094-5.425l0.919-4.603
				l-2.656,0.061l-3.8,0.08l-0.564,0.02c-0.641,0-0.909-0.24-0.807-0.72c0.091-0.427,0.327-0.667,0.713-0.721
				c0.113-0.027,0.442-0.047,0.995-0.06h24.555c0.852,0.013,1.351,0.054,1.498,0.12c0.243,0.107,0.328,0.334,0.255,0.682
				c-0.097,0.453-0.485,0.68-1.165,0.68l-1.729-0.061l-4.587-0.08H189.979z"/>
			<path fill="#020202" d="M184.569,41.243h-12.751l3.582-16.27l1.946-9.7l-6.688,0.153h-0.001c-0.46,0-0.765-0.107-0.943-0.328
				c-0.147-0.182-0.192-0.421-0.13-0.709c0.146-0.68,0.589-0.879,0.935-0.927c0.064-0.017,0.267-0.044,1.024-0.063h24.562
				c1.178,0.019,1.472,0.083,1.606,0.144c0.207,0.091,0.538,0.342,0.404,0.976c-0.087,0.405-0.404,0.889-1.423,0.889l-1.739-0.061
				l-4.767-0.079l-1.385,6.06l-1.322,5.943L184.569,41.243z M172.475,40.72h11.667l2.824-13.562l1.323-5.948l1.48-6.471h0.608
				l4.591,0.08l1.733,0.06c0.798,0,0.871-0.343,0.897-0.472c0.067-0.31-0.043-0.358-0.103-0.384
				c-0.032-0.015-0.244-0.081-1.395-0.098h-24.552c-0.716,0.018-0.891,0.043-0.934,0.054c-0.209,0.03-0.43,0.111-0.517,0.519
				c-0.027,0.126-0.02,0.217,0.023,0.269c0.067,0.085,0.261,0.133,0.525,0.133l0.555-0.02l6.788-0.147l-2.075,10.35L172.475,40.72z"
				/>
		</g>
		<g>
			<path fill="#F2EA33" d="M210.796,22.428c-0.157,0.614-0.329,1.361-0.517,2.241l-0.256,1.2l-2.794,13.81l6.798-0.067l4.815-0.053
				c0.786,0,1.13,0.236,1.029,0.71c-0.083,0.396-0.332,0.619-0.743,0.672c-0.096,0.013-0.651,0.027-1.669,0.04h-22.737l0.242-1.039
				l1.441-6.688l1.602-7.166l2.482-12.428h21.217c0.945,0,1.482,0.02,1.606,0.06c0.292,0.079,0.396,0.302,0.318,0.67
				c-0.098,0.461-0.44,0.691-1.027,0.691h-0.141l-10-0.12l-1.399,6.204l2.177,0.02l7.029-0.12l1.546-0.02
				c0.562,0,0.921,0.047,1.081,0.142c0.159,0.095,0.211,0.284,0.148,0.568c-0.111,0.528-0.607,0.792-1.488,0.792l-1.569-0.048
				L210.796,22.428z"/>
			<path fill="#020202" d="M217.461,41.243h-23.069l0.316-1.362l1.44-6.681l1.603-7.167l2.522-12.635h21.434
				c1.46,0,1.611,0.048,1.687,0.072c0.191,0.052,0.647,0.258,0.495,0.977c-0.087,0.41-0.38,0.899-1.284,0.899h-0.141l-9.791-0.117
				l-1.28,5.678l1.851,0.017l8.57-0.141c0.819,0,1.087,0.102,1.217,0.179c0.184,0.109,0.382,0.345,0.274,0.85
				c-0.142,0.662-0.729,1-1.747,1l-1.579-0.049L211,22.692c-0.141,0.567-0.296,1.25-0.463,2.032l-0.256,1.201l-2.729,13.489
				l11.288-0.118c0.578,0,0.958,0.12,1.158,0.371c0.1,0.121,0.2,0.334,0.131,0.657c-0.107,0.51-0.443,0.813-0.967,0.879
				c-0.076,0.011-0.34,0.023-1.699,0.04H217.461z M195.054,40.72h22.404c1.306-0.02,1.583-0.032,1.635-0.038
				c0.306-0.038,0.462-0.178,0.522-0.467c0.031-0.146-0.011-0.199-0.025-0.216c-0.043-0.053-0.2-0.175-0.747-0.175l-11.936,0.122
				l3.115-15.332c0.188-0.883,0.361-1.641,0.518-2.252l0.052-0.2l9.397,0.073l1.577,0.048c1.1,0,1.192-0.438,1.222-0.583
				c0.017-0.073,0.045-0.245-0.026-0.287c-0.041-0.024-0.232-0.105-0.945-0.105l-1.541,0.021l-7.029,0.12l-2.511-0.023l1.519-6.73
				l10.351,0.123c0.593,0,0.722-0.257,0.77-0.482c0.066-0.31-0.043-0.339-0.129-0.363c-0.05-0.013-0.282-0.05-1.538-0.05h-21.001
				l-2.438,12.216l-1.604,7.172L195.054,40.72z"/>
		</g>
		<g>
			<path fill="#F2EA33" d="M239.771,36.458c1.095,0.877,2.319,1.627,3.671,2.25c1.354,0.619,2.846,1.105,4.476,1.454
				c0.396,0.078,0.559,0.278,0.491,0.598c-0.094,0.441-0.447,0.661-1.059,0.661c-1.399,0-3.234-0.612-5.505-1.84
				c-1.888-1.029-3.962-2.614-6.222-4.765l-0.176,0.821l-0.703,3.402l-0.413,1.941h-12.188l0.191-0.902l1.428-6.524l1.719-7.803
				l2.53-12.09h8.039c3.601,0,6.299,0.1,8.096,0.3c1.797,0.2,3.285,0.573,4.461,1.121c1.921,0.881,3.279,2.329,4.078,4.343
				c0.735,1.869,0.887,3.83,0.45,5.883c-0.467,2.19-1.538,4.252-3.215,6.184C247.22,34.603,243.837,36.257,239.771,36.458z
				 M238.135,35.218l0.955,0.019c2.744,0,5.226-0.767,7.445-2.301c1.403-0.961,2.576-2.161,3.523-3.603
				c0.88-1.319,1.467-2.669,1.758-4.043c0.498-2.334,0.182-4.423-0.946-6.264c-0.856-1.427-2.094-2.435-3.714-3.022
				c-1.621-0.587-4.014-0.9-7.174-0.94l-3.032,13.41l-0.771,3.622l-0.18,0.94C236.65,33.816,237.361,34.546,238.135,35.218z"/>
			<path fill="#020202" d="M247.35,41.686c-1.437,0-3.33-0.632-5.63-1.872c-1.808-0.985-3.802-2.491-5.937-4.483l-1.239,5.913
				h-12.726l0.259-1.219l3.146-14.33l2.572-12.296h8.255c3.593,0,6.327,0.102,8.126,0.303c1.818,0.202,3.346,0.587,4.543,1.144
				c1.974,0.905,3.39,2.414,4.21,4.484c0.752,1.909,0.908,3.939,0.464,6.036c-0.475,2.224-1.576,4.344-3.273,6.304
				c-2.579,2.969-5.819,4.65-9.638,5.003c0.934,0.688,1.964,1.289,3.069,1.796c1.331,0.611,2.817,1.095,4.421,1.436
				c0.286,0.059,0.491,0.177,0.608,0.356c0.104,0.156,0.133,0.343,0.086,0.558C248.583,41.212,248.285,41.686,247.35,41.686z
				 M235.463,34.303l0.341,0.323c2.231,2.121,4.306,3.71,6.167,4.723c2.222,1.202,4.031,1.811,5.379,1.811
				c0.625,0,0.756-0.241,0.802-0.452c0.014-0.074,0.011-0.125-0.011-0.161c-0.035-0.053-0.136-0.099-0.275-0.126
				c-1.644-0.352-3.169-0.848-4.534-1.476c-1.364-0.625-2.619-1.395-3.725-2.281l-0.544-0.436l0.693-0.031
				c3.975-0.197,7.328-1.837,9.966-4.875c1.64-1.89,2.702-3.931,3.154-6.065c0.424-1.994,0.276-3.923-0.437-5.734
				c-0.768-1.939-2.096-3.353-3.942-4.2c-1.146-0.533-2.618-0.902-4.38-1.098c-1.779-0.199-4.494-0.299-8.067-0.299h-7.825
				l-2.487,11.879l-3.271,14.916h11.651L235.463,34.303z M239.09,35.501l-1.056-0.023l-0.072-0.062
				c-0.778-0.676-1.507-1.422-2.163-2.212l-0.08-0.095l0.203-1.063l0.771-3.628l3.078-13.621l0.213,0.003
				c3.178,0.04,5.62,0.362,7.262,0.956c1.671,0.606,2.967,1.66,3.852,3.135c1.156,1.89,1.486,4.062,0.978,6.454
				c-0.297,1.4-0.901,2.791-1.797,4.135c-0.961,1.462-2.17,2.7-3.593,3.674C244.431,34.711,241.876,35.501,239.09,35.501z
				 M238.235,34.956l0.861,0.019c2.67,0,5.125-0.761,7.287-2.254c1.37-0.938,2.53-2.126,3.455-3.531
				c0.858-1.29,1.437-2.619,1.721-3.955c0.479-2.255,0.172-4.298-0.914-6.071c-0.821-1.37-2.026-2.349-3.58-2.912
				c-1.549-0.562-3.86-0.871-6.874-0.922l-2.984,13.202l-0.925,4.432C236.881,33.673,237.537,34.343,238.235,34.956z"/>
		</g>
	</g>
</g>
</svg>
